<svg aria-hidden="true" xmlns="http://www.w3.org/2000/svg" xmlns:xlink="http://www.w3.org/1999/xlink"><symbol viewBox="0 0 14 20" fill="none" id="arrow" xmlns="http://www.w3.org/2000/svg">
<path d="M6.55113 -3.256e-07L8.31534 -2.48484e-07L8.31534 16.681L12.9079 12.2L14 13.2929L7.43324 19.7003L0.866475 13.2929L1.9586 12.2L6.55113 16.681L6.55113 -3.256e-07Z" fill="currentColor"/>
</symbol><symbol viewBox="0 0 19 19" fill="none" id="back" xmlns="http://www.w3.org/2000/svg">
<path d="M4.3425 5.87422L6.66716 8.09322L5.371 9.33047L0.833496 4.99922L5.371 0.667969L6.66716 1.90522L4.3425 4.12422H10.9168C12.8617 4.12422 14.727 4.86172 16.1023 6.17447C17.4775 7.48723 18.2502 9.2677 18.2502 11.1242C18.2502 12.9807 17.4775 14.7612 16.1023 16.074C14.727 17.3867 12.8617 18.1242 10.9168 18.1242H2.66683V16.3742H10.9168C12.3755 16.3742 13.7745 15.8211 14.8059 14.8365C15.8374 13.852 16.4168 12.5166 16.4168 11.1242C16.4168 9.73183 15.8374 8.39647 14.8059 7.41191C13.7745 6.42734 12.3755 5.87422 10.9168 5.87422H4.3425Z" fill="currentColor"/>
</symbol><symbol viewBox="0 0 12 17" fill="none" id="bench" xmlns="http://www.w3.org/2000/svg">
<path d="M0.266602 3.5C0.266602 1.84315 1.60975 0.5 3.2666 0.5H8.2666C9.92346 0.5 11.2666 1.84315 11.2666 3.5V16.5L5.7666 13.8L0.266602 16.5V3.5Z" fill="currentColor"/>
</symbol><symbol viewBox="0 0 9 6" fill="none" id="dropdown" xmlns="http://www.w3.org/2000/svg">
<path d="M3.89409 4.62749L8.01076 0.510816L8.99994 1.5L4.88327 5.61667L3.89409 4.62749Z" fill="currentColor"/>
<path d="M4.88327 5.61667L0.766602 1.5L1.75371 0.512888L5.87038 4.62956L4.88327 5.61667Z" fill="currentColor"/>
</symbol><symbol viewBox="0 0 81 81" fill="none" id="guarant" xmlns="http://www.w3.org/2000/svg">
<path d="M37.9924 17.7531C37.0275 17.8623 36.3302 18.7286 36.4359 19.6971C36.545 20.662 37.3902 21.3559 38.3799 21.2537C44.2541 20.6127 50.0262 22.6306 54.1995 26.8004C58.3693 30.9737 60.3907 36.7388 59.7427 42.62C59.6336 43.5885 60.3344 44.4584 61.2993 44.564C61.3627 44.5711 61.4295 44.5746 61.4929 44.5746C62.3804 44.5746 63.1411 43.909 63.2397 43.0038C64.0038 36.0554 61.6161 29.2408 56.6858 24.3105C51.7554 19.3802 44.9514 16.9961 37.9924 17.7531Z" fill="currentColor"/>
<path d="M41.0142 59.8413C35.6048 60.0139 30.5864 57.9819 26.804 54.1961C23.0217 50.4102 21.0143 45.3635 21.1587 39.9859C21.1833 39.0139 20.4157 38.2038 19.4437 38.1792C18.5914 38.2286 17.6616 38.9222 17.637 39.8942C17.4715 46.251 19.8381 52.2133 24.3143 56.6858C28.6389 61.0105 34.3583 63.3701 40.4756 63.3701C40.6834 63.3701 40.8947 63.3701 41.106 63.363C42.078 63.3384 42.8458 62.5284 42.821 61.5564C42.7963 60.5809 41.944 59.859 41.0142 59.8413Z" fill="currentColor"/>
<path d="M75.3722 32.0408C73.7135 30.5899 71.9984 29.0897 71.4208 27.6985C70.7975 26.1983 70.9419 23.8422 71.0827 21.5672C71.3011 17.9716 71.5299 14.2596 69.1387 11.8649C66.7475 9.47369 63.032 9.70613 59.4364 9.9209C57.1543 10.0582 54.8017 10.1991 53.3051 9.58281C51.914 9.00519 50.4137 7.29016 48.9628 5.63142C46.656 2.99342 44.0358 0 40.4999 0C36.964 0 34.3439 2.99342 32.0406 5.62779C30.5898 7.28653 29.0895 9.00156 27.6983 9.57918C26.1981 10.2025 23.842 10.0581 21.5671 9.91727C17.9714 9.70249 14.2559 9.46643 11.8647 11.8613C9.47353 14.2561 9.69886 17.968 9.92073 21.5636C10.0581 23.8422 10.2025 26.1946 9.58265 27.6949C9.00503 29.086 7.29 30.5863 5.63126 32.0372C2.99342 34.344 0 36.9642 0 40.4999C0 44.0356 2.99342 46.656 5.62779 48.9592C7.28653 50.4101 9.00156 51.9103 9.57918 53.3015C10.2025 54.8017 10.0581 57.1578 9.91727 59.4328C9.69886 63.0284 9.47006 66.7404 11.8613 69.1351C14.2561 71.5299 17.9714 71.2975 21.5636 71.0791C23.8386 70.9383 26.1946 70.7938 27.6949 71.4172C29.086 71.9948 30.5863 73.7098 32.0372 75.3686C34.3439 78.0064 36.964 80.9998 40.4999 80.9998C44.0358 80.9998 46.656 78.0064 48.9592 75.372C50.4101 73.7133 51.9103 71.9983 53.3015 71.4207C54.8017 70.8008 57.1543 70.9418 59.4328 71.0826C63.0249 71.2973 66.7439 71.5298 69.1351 69.1386C71.5263 66.7437 71.301 63.0319 71.0791 59.4362C70.9418 57.1576 70.7973 54.8052 71.4172 53.305C71.9948 51.9138 73.7098 50.4135 75.3686 48.9627C78.0064 46.656 80.9998 44.0358 80.9998 40.4999C80.9998 36.964 78.0064 34.344 75.3722 32.0408ZM73.0479 46.3144C71.0862 48.0331 69.0542 49.808 68.1633 51.9597C67.2301 54.2101 67.3991 56.9782 67.5645 59.6546C67.737 62.4685 67.9132 65.3775 66.6453 66.6488C65.3775 67.9201 62.4615 67.7441 59.6512 67.568C56.9747 67.406 54.2066 67.2334 51.9562 68.1667C49.8044 69.0577 48.0294 71.0862 46.3109 73.0513C44.4092 75.2278 42.437 77.4782 40.5001 77.4782C38.5632 77.4782 36.591 75.2278 34.6892 73.0513C32.9706 71.0897 31.1956 69.0577 29.0439 68.1667C27.6705 67.5962 26.1068 67.4377 24.4869 67.4377C23.4515 67.4377 22.3915 67.5011 21.3455 67.5645C18.5352 67.737 15.6226 67.9166 14.3514 66.6453C13.0801 65.3741 13.2597 62.465 13.4322 59.6512C13.5978 56.9747 13.7668 54.2066 12.8334 51.9562C11.9425 49.8044 9.91396 48.0294 7.94884 46.3109C5.7724 44.4092 3.52201 42.437 3.52201 40.5001C3.52201 38.5632 5.7724 36.591 7.9523 34.6858C9.91396 32.9671 11.946 31.1921 12.8369 29.0405C13.7701 26.7901 13.6011 24.022 13.4356 21.3455C13.2631 18.5317 13.087 15.6226 14.3548 14.3514C15.6261 13.0801 18.5457 13.2631 21.349 13.4322C24.0326 13.6012 26.7972 13.7668 29.0439 12.8334C31.1958 11.9425 32.9707 9.91396 34.6892 7.94884C36.591 5.7724 38.5632 3.52201 40.5001 3.52201C42.437 3.52201 44.4092 5.7724 46.3144 7.9523C48.0331 9.91396 49.808 11.946 51.9597 12.8369C54.2101 13.7701 56.9747 13.6047 59.6546 13.4356C62.465 13.2631 65.381 13.087 66.6488 14.3548C67.9201 15.6261 67.7405 18.5352 67.568 21.349C67.4024 24.0255 67.2334 26.7935 68.1667 29.0439C69.0577 31.1958 71.0862 32.9707 73.0513 34.6892C75.2278 36.591 77.4782 38.5632 77.4782 40.5001C77.4782 42.437 75.2278 44.409 73.0479 46.3144Z" fill="currentColor"/>
</symbol><symbol viewBox="0 0 8 2" fill="none" id="minus" xmlns="http://www.w3.org/2000/svg">
<path d="M0.688011 0.640625L7.31201 0.640625L7.31201 1.36062L0.688011 1.36062L0.688011 0.640625Z" fill="currentColor"/>
</symbol><symbol viewBox="0 0 15 19" fill="none" id="play" xmlns="http://www.w3.org/2000/svg">
<path d="M1.55068 18.6772C0.885817 19.1158 5.13726e-08 18.639 8.9931e-08 17.8424L8.64409e-07 1.84387C9.02831e-07 1.05016 0.880265 0.572797 1.54549 1.00575L13.7529 8.95087C14.3567 9.34384 14.3594 10.227 13.7581 10.6237L1.55068 18.6772Z" fill="currentColor"/>
</symbol><symbol viewBox="0 0 20 21" fill="none" id="plus" xmlns="http://www.w3.org/2000/svg">
<path d="M0 11.4488V9.68456H19.7003V11.4488H0Z" fill="currentColor"/>
<path d="M8.96804 0.716553L10.7322 0.716553L10.7322 20.4168H8.96804L8.96804 0.716553Z" fill="currentColor"/>
</symbol><symbol viewBox="0 0 4 8" fill="none" id="poly" xmlns="http://www.w3.org/2000/svg">
    <path fill-rule="evenodd" clip-rule="evenodd" d="M0 0.548178C0 0.574708 0.452251 1.33866 1.005 2.24577C1.55775 3.15287 2.01 3.94314 2.01 4.00193C2.01 4.06072 1.55775 4.85099 1.005 5.7581C0.452251 6.6652 0 7.42915 0 7.45568C0 7.48221 0.463507 7.50206 1.03013 7.49983L2.06025 7.49569L3.01501 5.82951C3.54012 4.91307 3.98312 4.11007 3.9994 4.04523C4.01569 3.98028 3.69609 3.35896 3.28917 2.66462C2.88234 1.97017 2.44236 1.19911 2.3114 0.951006L2.07352 0.5H1.03676C0.466522 0.5 0 0.521648 0 0.548178Z" fill="currentColor"/>
</symbol><symbol viewBox="0 0 69 69" fill="none" id="price" xmlns="http://www.w3.org/2000/svg">
<path fill-rule="evenodd" clip-rule="evenodd" d="M66.7144 35.6899C67.6619 36.6374 68.1942 37.9272 68.1942 39.2692V63.1237C68.1942 65.9174 65.9319 68.1812 63.1357 68.1862L39.2704 68.1964C37.9306 68.1964 36.642 67.6624 35.6875 66.7132L17.5469 48.5707C16.4352 53.8692 15.824 59.7889 15.824 66.357C15.824 67.289 15.0685 68.0445 14.1365 68.0445C13.2045 68.0445 12.449 67.289 12.449 66.357C12.449 58.6738 13.2607 51.8148 14.7244 45.7479L2.23619 33.2584C0.255522 31.2828 0.255521 28.0722 2.23459 26.0981L26.096 2.23349C28.0745 0.254851 31.2794 0.254851 33.258 2.23349L59.0844 28.0599C59.5673 26.8351 59.9972 25.6145 60.3608 24.4179C63.3257 14.6657 61.6018 9.15005 54.6989 9.15005C52.1614 9.15005 49.7439 9.47688 47.4479 10.1031C46.5488 10.3483 45.621 9.81822 45.3758 8.91907C45.1306 8.01993 45.6607 7.09225 46.5599 6.84702C49.144 6.14225 51.86 5.77505 54.6989 5.77505C64.5988 5.77505 67.1116 13.8153 63.5898 25.3997C63.0659 27.1231 62.4169 28.8891 61.673 30.6485L66.7144 35.6899ZM15.7428 41.993L4.62122 30.8704C3.96105 30.2119 3.96105 29.1431 4.61963 28.4861L28.4824 4.61989C29.1431 3.95937 30.2109 3.95937 30.8716 4.61997L57.6453 31.3937C54.6073 37.8826 50.3846 43.9684 46.9254 46.6073C46.1845 47.1726 46.0419 48.2316 46.6072 48.9725C47.1725 49.7135 48.2314 49.8559 48.9724 49.2908C52.6903 46.4544 56.9706 40.4549 60.1762 33.9246L64.328 38.0763C64.6413 38.3897 64.8192 38.8207 64.8192 39.2692V63.1237C64.8192 64.0551 64.0652 64.8096 63.132 64.8112L39.2698 64.8214C38.8243 64.8214 38.3909 64.6418 38.071 64.3236L18.4706 44.7212C19.3193 41.595 20.3536 38.7098 21.5461 36.0593C22.7847 33.3068 24.1057 31.0167 25.4191 29.1682C26.1888 28.0848 26.7698 27.4024 27.0713 27.1008C27.7303 26.4419 27.7303 25.3734 27.0713 24.7144C26.4124 24.0554 25.3438 24.0554 24.6849 24.7144C24.2525 25.1466 23.5493 25.9728 22.6678 27.2134C21.2292 29.2382 19.7984 31.7187 18.4683 34.6745C17.4425 36.9543 16.529 39.3929 15.7428 41.993ZM47.9489 53.0116C50.7429 53.0116 53.0114 50.7431 53.0114 47.9491C53.0114 47.0171 53.7669 46.2616 54.6989 46.2616C55.6309 46.2616 56.3864 47.0171 56.3864 47.9491C56.3864 52.6071 52.6069 56.3866 47.9489 56.3866C43.2909 56.3866 39.5114 52.6071 39.5114 47.9491C39.5114 43.2911 43.2909 39.5116 47.9489 39.5116C48.8809 39.5116 49.6364 40.2671 49.6364 41.1991C49.6364 42.1311 48.8809 42.8866 47.9489 42.8866C45.1549 42.8866 42.8864 45.1551 42.8864 47.9491C42.8864 50.7431 45.1549 53.0116 47.9489 53.0116Z" fill="currentColor"/>
</symbol><symbol viewBox="0 0 612.01 612.01" xml:space="preserve" class="" id="search" xmlns="http://www.w3.org/2000/svg"><g><path d="M606.209 578.714 448.198 423.228C489.576 378.272 515 318.817 515 253.393 514.98 113.439 399.704 0 257.493 0S.006 113.439.006 253.393s115.276 253.393 257.487 253.393c61.445 0 117.801-21.253 162.068-56.586l158.624 156.099c7.729 7.614 20.277 7.614 28.006 0a19.291 19.291 0 0 0 .018-27.585zM257.493 467.8c-120.326 0-217.869-95.993-217.869-214.407S137.167 38.986 257.493 38.986c120.327 0 217.869 95.993 217.869 214.407S377.82 467.8 257.493 467.8z" fill="currentColor" opacity="1" data-original="#000000"/></g></symbol><symbol viewBox="0 0 43 43" fill="none" id="tg" xmlns="http://www.w3.org/2000/svg">
<rect x="42" y="1" width="41" height="41" rx="14" transform="rotate(90 42 1)" stroke="currentColor" stroke-width="2"/>
<path d="M29.4262 13.9184C29.7369 14.0484 29.8862 14.347 29.8862 14.8388C29.8862 15.2897 26.9102 29.436 26.7502 29.7456C26.5245 30.1822 26.0427 30.3479 25.547 30.1594C25.382 30.0966 23.7536 28.9233 21.3751 27.1535L20.785 26.7144L19.5049 27.937C18.5723 28.8277 18.1625 29.1732 17.9953 29.2099C17.8691 29.2377 17.7499 29.2445 17.7305 29.2251C17.7111 29.2056 17.7631 28.1802 17.8461 26.9464L17.9971 24.7029L18.4914 24.245C18.7633 23.9931 20.67 22.2639 22.7286 20.4023C24.7871 18.5406 26.4714 16.9713 26.4714 16.915C26.4714 16.8433 26.3964 16.8145 26.2221 16.8191C26.0206 16.8246 24.9757 17.4543 20.7571 20.1127C17.8884 21.9205 15.5048 23.3996 15.4603 23.3996C15.266 23.3996 10.8269 21.9718 10.6162 21.8416C10.1668 21.5636 10.2624 21.1419 10.8495 20.8135C11.0024 20.728 12.1244 20.2733 13.3428 19.8032L18.4447 17.8348C20.0325 17.2222 22.8682 16.127 24.7464 15.4011C28.8637 13.8098 28.8251 13.824 29.026 13.8208C29.1143 13.8194 29.2944 13.8634 29.4262 13.9184Z" fill="currentColor"/>
</symbol><symbol viewBox="0 0 43 43" fill="none" id="vk" xmlns="http://www.w3.org/2000/svg">
<rect x="42" y="1" width="41" height="41" rx="14" transform="rotate(90 42 1)" stroke="currentColor" stroke-width="2"/>
<path d="M22.9357 20.9767C22.5451 20.8298 22.5451 20.2688 22.5208 19.8782C22.4232 18.4868 22.9115 16.3626 22.3255 15.4595C21.9107 14.922 19.9083 14.9712 18.688 15.0446C18.3458 15.0938 17.931 15.1665 17.638 15.3134C17.3451 15.4603 17.0521 15.704 17.0521 15.9235C17.0521 16.2407 17.7849 16.1923 18.0529 16.6071C18.3458 17.047 18.3458 17.9985 18.3458 18.7798C18.3458 19.6829 18.199 20.8798 17.8333 20.9282C17.2716 20.9524 16.9544 20.3907 16.6615 19.9759C16.0755 19.1704 15.4896 18.1688 15.0497 17.1923C14.8302 16.6798 14.7076 16.1181 14.3904 15.8985C13.9021 15.5563 13.0232 15.5321 12.1685 15.5563C11.3872 15.5806 10.2638 15.4829 10.0443 15.947C9.87318 16.4595 10.2396 16.9478 10.4349 17.3634C11.4357 19.536 12.5099 21.4407 13.8287 23.247C15.0497 24.9313 16.1966 26.2743 18.4427 26.9821C19.0779 27.1774 21.8607 27.7392 22.4224 26.9821C22.6177 26.6892 22.5693 26.0298 22.6669 25.5415C22.7646 25.0532 22.8865 24.5649 23.3505 24.5407C23.7412 24.5165 23.9607 24.8579 24.2052 25.1024C24.474 25.3712 24.6935 25.5907 24.8888 25.8353C25.3529 26.2993 25.8412 26.9337 26.4271 27.1782C27.2326 27.5204 28.4779 27.4228 29.6497 27.3735C30.6021 27.3493 31.2857 27.154 31.3591 26.5923C31.4083 26.1524 30.9193 25.5181 30.6263 25.1517C29.8935 24.2485 29.5521 23.9798 28.7216 23.1493C28.3552 22.7829 27.8912 22.3923 27.8912 21.9532C27.8669 21.6845 28.0865 21.4407 28.2818 21.172C29.1365 19.9024 29.9912 18.9993 30.7724 17.6806C30.9919 17.2899 31.5052 16.3868 31.3099 15.947C31.0904 15.4587 29.8693 15.6048 29.1122 15.6048C28.1357 15.6048 26.8662 15.5313 26.6216 15.7267C26.1576 16.0438 25.9622 16.5571 25.7427 17.0454C25.2544 18.1688 24.5951 19.3157 23.9115 20.1704C23.6669 20.4634 23.2037 21.0735 22.9349 20.9759L22.9357 20.9767Z" fill="currentColor"/>
</symbol><symbol viewBox="0 0 43 43" fill="none" id="youtube" xmlns="http://www.w3.org/2000/svg">
<rect x="42" y="1" width="41" height="41" rx="14" transform="rotate(90 42 1)" stroke="currentColor" stroke-width="2"/>
<path d="M32.1997 15.4982C32.0738 15.0127 31.8212 14.5693 31.4677 14.2134C31.1143 13.8575 30.6727 13.6017 30.1881 13.4724C27.2499 13.1258 24.2923 12.9697 21.3339 13.0049C18.3755 12.9697 15.418 13.1258 12.4797 13.4724C11.9951 13.6017 11.5535 13.8575 11.2001 14.2134C10.8467 14.5693 10.5941 15.0127 10.4681 15.4982C10.1462 17.303 9.98974 19.1333 10.0006 20.9665C9.9892 22.8092 10.1457 24.649 10.4681 26.4632C10.6006 26.9409 10.8561 27.3754 11.2091 27.7234C11.5621 28.0715 12.0002 28.3208 12.4797 28.4465C15.418 28.793 18.3755 28.9493 21.3339 28.914C24.2923 28.9493 27.2499 28.793 30.1881 28.4465C30.6676 28.3208 31.1058 28.0715 31.4587 27.7234C31.8117 27.3754 32.0673 26.9409 32.1997 26.4632C32.5222 24.649 32.6786 22.8092 32.6672 20.9665C32.6781 19.1333 32.5216 17.303 32.1997 15.4982ZM19.0106 24.3523V17.609L24.9464 20.9665L19.0106 24.3382V24.3523Z" fill="currentColor"/>
</symbol><symbol viewBox="0 0 9 16" fill="none" id="zip" xmlns="http://www.w3.org/2000/svg">
<path d="M1.69204 5.39441L5.73457 6.00826L0 15.5L1.69204 5.39441Z" fill="currentColor"/>
<path d="M7.30796 10.6056L3.26543 9.99174L9 0.5L7.30796 10.6056Z" fill="currentColor"/>
</symbol></svg>