<svg width="331" height="541" viewBox="0 0 331 541" fill="none" xmlns="http://www.w3.org/2000/svg">
<path d="M329.985 273.736C329.927 273.952 329.742 274.412 329.387 275.164C329.042 275.893 328.566 276.838 327.961 277.989C326.752 280.291 325.045 283.394 322.895 287.205C318.594 294.826 312.531 305.261 305.15 317.756C290.389 342.745 270.364 375.962 248.64 411.372L169.926 539.669L85.2392 539.986C61.8055 540.072 40.5102 539.733 25.0791 539.115C17.3606 538.806 11.1233 538.428 6.8242 538.002C4.66958 537.788 3.03114 537.565 1.94431 537.338C1.65706 537.278 1.42206 537.219 1.23435 537.166C1.26196 537.11 1.291 537.05 1.32322 536.986C1.59728 536.446 2.01195 535.689 2.56541 534.721C3.67079 532.786 5.30593 530.047 7.41599 526.59C11.6348 519.678 17.7388 509.92 25.2744 498.031C40.3449 474.256 61.1327 441.972 84.001 406.922C106.875 371.863 127.671 339.06 142.751 314.449C150.29 302.145 156.404 291.882 160.636 284.407C162.751 280.671 164.402 277.62 165.526 275.355C166.088 274.223 166.526 273.273 166.825 272.523C166.975 272.149 167.096 271.81 167.181 271.516C167.261 271.238 167.328 270.933 167.328 270.649C167.328 270.365 167.261 270.06 167.181 269.782C167.096 269.488 166.975 269.15 166.825 268.775C166.526 268.026 166.088 267.075 165.526 265.943C164.402 263.678 162.75 260.627 160.636 256.892C156.404 249.417 150.29 239.154 142.751 226.85C127.671 202.239 106.875 169.435 84.001 134.376C61.1327 99.3256 40.3448 67.0421 25.2744 43.2666C17.7389 31.3784 11.6348 21.6208 7.41601 14.709C5.30595 11.252 3.67081 8.51302 2.56543 6.57813C2.012 5.60939 1.59733 4.85264 1.32324 4.3125C1.2904 4.24778 1.26145 4.18587 1.2334 4.12891C1.42413 4.0741 1.66366 4.01498 1.95703 3.95313C3.05171 3.72234 4.70203 3.49314 6.87109 3.27149C11.1985 2.82928 17.4758 2.42881 25.2441 2.0918C40.7753 1.41803 62.2083 1.00001 85.792 1L171 1.00001L190.398 35.3477L190.398 35.3486C200.57 53.3473 233.217 106.864 264.995 157.704L271.332 167.825C288.161 194.644 303.18 220.049 313.821 239.368C319.143 249.03 323.363 257.158 326.165 263.175C327.567 266.185 328.605 268.647 329.249 270.499C329.571 271.426 329.787 272.178 329.902 272.756C330.025 273.372 330.006 273.659 329.985 273.736Z" stroke="white" stroke-width="2"/>
</svg>
