<svg width="239" height="33" viewBox="0 0 239 33" fill="none" xmlns="http://www.w3.org/2000/svg">
<path fill-rule="evenodd" clip-rule="evenodd" d="M0 0.249829C0 0.374742 2.2786 3.97174 5.06356 8.24276C7.84852 12.5138 10.1271 16.2347 10.1271 16.5115C10.1271 16.7883 7.84852 20.5092 5.06356 24.7802C2.2786 29.0513 0 32.6483 0 32.7732C0 32.8981 2.33531 32.9915 5.19015 32.981L10.3803 32.9615L15.1907 25.1165C17.8364 20.8015 20.0684 17.0206 20.1504 16.7154C20.2325 16.4096 18.6223 13.4841 16.572 10.2149C14.5223 6.94516 12.3055 3.31469 11.6457 2.14651L10.4471 0.0229874H5.22357C2.3505 0.0229874 0 0.124916 0 0.249829Z" fill="#ED5237"/>
<path d="M44.5593 12.0566L54.9396 9.08767L30.3813 9.01672V0.022984H61.7992L61.5222 17.235L38.283 23.7564L61.7754 24.0248V33H30.3813V16.0503L32.2802 15.5382C33.3248 15.2564 38.8501 13.6895 44.5593 12.0566Z" fill="white"/>
<path d="M160.721 17.5108L163.453 25.7551L163.553 0.022984H172.667V33L155.198 32.998L147.096 7.44181L146.826 33H137.222V0.022984H155.262L156.626 4.64476C157.376 7.18699 159.219 12.9765 160.721 17.5108Z" fill="white"/>
<path d="M233.81 32.982L228.62 32.964L219.505 18.0104L219.226 33H210.138V0.022984H219.226L219.505 15.0125L228.62 0.0589589L233.81 0.0409714C236.664 0.0309784 239 0.129909 239 0.260818C239 0.391227 236.721 3.97223 233.936 8.21827C231.151 12.4643 228.873 16.1817 228.873 16.479C228.873 16.7768 230.088 18.8733 231.572 21.1378C237.247 29.7952 239 32.5393 239 32.7657C239 32.8946 236.664 32.992 233.81 32.982Z" fill="white"/>
<path d="M64.8136 33V0.022984H95.1949V9.01672H73.928V12.0146H94.6886V21.0084H73.928V24.0063H95.1949V33H64.8136Z" fill="white"/>
<path d="M98.233 33V0L116.116 0.27281L124.51 26.2547L124.564 0.022984H133.678V33H116.208L107.91 7.26793L107.854 33H98.233Z" fill="white"/>
<path d="M176.718 33V0.022984H207.1V9.01672H186.339V12.0146H207.1V21.0084H186.339V24.0063H207.1V33H176.718Z" fill="white"/>
</svg>
